<svg xmlns="http://www.w3.org/2000/svg" version="1.1" xmlns:xlink="http://www.w3.org/1999/xlink" xmlns:svgjs="http://svgjs.dev/svgjs" width="1500" height="1682" viewBox="0 0 1500 1682"><g transform="matrix(1,0,0,1,-2.336338785046678,0)"><svg viewBox="0 0 321 360" data-background-color="#ffffff" preserveAspectRatio="xMidYMid meet" height="1682" width="1500" xmlns="http://www.w3.org/2000/svg" xmlns:xlink="http://www.w3.org/1999/xlink"><g id="tight-bounds" transform="matrix(1,0,0,1,0.5000234999999975,0)"><svg viewBox="0 0 320 360" height="360" width="320"><g><svg></svg></g><g><svg viewBox="0 0 320 360" height="360" width="320"><g><path transform="translate(-74.99272,-51.79039) scale(4.65793,4.65793)" d="M20.6 59.9l0.8 1-0.4-1.3c-0.1-0.6-0.8 0.1-0.4 0.3M21.5 59.3c0.3 0.5 0.6 1 0.6 1.5 0 0.7 0.6 1 1.1 1.2-0.7-0.8-1.1-3-1.7-2.7M59.9 16.9c1.7 0 3.3-0.2 5.1 0.2 4.4 1.1 8.1 3.3 10.6 6.4l7 11.2c0.3 2.8 0.9 5.9 0.8 9.3 0.7 0 0.6-1 1.4-1.2-0.8 2-1.2 4.5-1.4 7.4-0.5-1.6 0-4 0.1-5.3-0.7 1.1-1.1 0.3-1.1-0.2 0.1-0.8-0.3-0.7-0.6-1-1.1-1-1.8-2.1-2.6-3.8 0.5-1.3 0.6-3.2-1-4.2-0.5-0.3-1.1-0.8-1.4-1.6-0.4-1.1-1.1-2.4-0.9-4.1 0.1-0.5-1.5 1.1-2.4 0.4-3.9-2.7-7.8-5.8-12.5-8.4-2.5 0-4.3-0.9-5.2-2-0.8-1-0.2-2.3 1-2.4 0.7 0 1.5-0.2 2.1 0.2 0.1-0.4 0.5-0.9 1-0.9M50 14.6l0.2 0.1c1 0.2 1.5 1.6 2.6 1.1 0 0.7 0.1 1.4-0.1 1.9-0.3 0.8-1.2 0.8-1.9 0.8-6.7-0.4-10.6 2.4-14.7 4.8-1.1 0.7-2.3 1.2-3.2 2.1-4.3 4-9 7.7-10.1 15.1l-0.9 8.2c-0.1 0.9-1.1 1.8-0.9 2.9l0.7 4.9c-0.7-0.7-1.1 0.2-0.9 0.6 0.1 0.3 0.5 1.3 1.1 0.4 0.8 1.5 1.6 4.4 2.7 5.7 3.4 4 7.8 7.6 11.4 11.2 0.9-0.2 1.6-0.2 1.8-0.8 0.3 0.6-0.3 1.2-0.8 1.3 1.6 1 3.4 1.9 5.8 2.1 3.1 0.2 6 0.7 8.7 1.4 1.4-0.4 2.8-0.6 4.3-0.7 0.5 0 0.8-0.8 1.4-1l0.1-1c0.6 0.9 0.5-0.3 0.1-0.9 0.7 0.6 0.9 1.1 1.2 1.5 0-0.3 0.8-1.4 0.8-0.1l0.2-1.3c0.3-0.2 0.4 1.1 0.7 0.2 0.3-0.9 0.9-0.2 1.5-0.5-0.2 0.4-0.1 1.2 0.6 0.7l0.8-0.7c0.5 1.2 1.3 0.7 1.7 0.5 4.4-2.8 8.8-6.1 13-9.4l-0.1 1.3 0.5-1.6c0.5 0.5 0.9 0.1 1.1-0.2 0.6-1 1.4-2 2.7-2.9-1.6 4.3-3.5 7.7-5.9 10.5l-1 1.2c0 0.7-0.2 1.6-1 1.7-0.4 0.1-1.2-0.2-1.8 0.4-0.3 0.4 0.7 1.2-0.1 0.6-0.7-0.5-1.4 0-2.2 0.2-0.6 0.2 0.4 0.8 0.6 1.2 0.2 0.4 0.4 0.8 0.3 1.3l-1.1-1.2c-1.3 0.7-2.1 2-3.2 3-0.5 0.4-0.3 1.1-0.3 1.7-0.7 0-1.5-0.2-1.9 0.2-0.3 0.4-0.2 1-0.2 1.6-1-0.1-1.1-1.6-2-1.3-0.9 0.2-1.9 0.3-2.7 0.8 0.6 1.2-1 0.5-0.8 0.7-1.5-0.9-2.8-1.6-4.4-1-3.4-1.1-7.6-0.6-10.7-0.2 0-0.5 0.1-1-0.1-1.1-0.2 0.5-0.8 0.3-0.7 0.3-1.9-1.3-3.8-2.1-5.8-3.2-1.8 0.2-3.5-0.7-4-1.2-1.4-1.3-3-0.6-4.3-0.9-2.8-0.7-3.8-3.6-4.1-5.6-0.2-1-1-1.4-1.3-1.3-1.3-4.2-3.3-8-4.9-11.9-0.4-1-0.3-2-0.3-3.1 0.5 0.2 1 0.1 0.9-0.6-0.5-3.3-1.7-5.8-3-8.2 0.7-3.4 0.8-7.4 2.4-10.4 1.4-2.7 4-4.1 5.8-6.4 0.6-0.8 0.6-1.9 1.2-2.6 2-2 4-4.1 6.2-5.9 1-0.8 2.2 0 3.7-0.3 0.5-1.8 2.5-3.4 4.4-2.9 0.8 0.2 2.4-1.9 2.9-2.1 0.8-0.3 0.4 0.8 0.4 1.5 1.9-1.5 4.5-2.3 6.9-3.2" fill="#556970" fill-rule="nonzero" stroke="none" stroke-width="1" stroke-linecap="butt" stroke-linejoin="miter" stroke-miterlimit="10" stroke-dasharray="" stroke-dashoffset="0" font-family="none" font-weight="none" font-size="none" text-anchor="none" style="mix-blend-mode: normal" data-fill-palette-color="tertiary"></path></g><g transform="matrix(1,0,0,1,64,147.97794976121187)"><svg viewBox="0 0 192 64.04410047757625" height="64.04410047757625" width="192"><g><svg viewBox="0 0 192 64.04410047757625" height="64.04410047757625" width="192"><g><svg viewBox="0 0 192 64.04410047757625" height="64.04410047757625" width="192"><g transform="matrix(1,0,0,1,0,38.70943832888181)"><svg viewBox="0 0 192 25.33466214869444" height="25.33466214869444" width="192"><g id="textblocktransform"><svg viewBox="0 0 192 25.33466214869444" height="25.33466214869444" width="192" id="textblock"><g><svg viewBox="0 0 192 25.33466214869444" height="25.33466214869444" width="192"><g transform="matrix(1,0,0,1,0,0)"><svg width="192" viewBox="2.85 -32.15 250.83 33.1" height="25.33466214869444" data-palette-color="#556970"><path d="M25.6 0.8Q24.35 0.8 22.93-0.48 21.5-1.75 20.3-3.95L20.3-3.95 14.95-13.65 10.8-13.65 10.65-6.2Q10.65-4.3 10.9-3.48 11.15-2.65 11.85-2.38 12.55-2.1 14.25-2.1L14.25-2.1 14.35-1.9 13.9 0.2Q13.3 0.15 11.5 0.1 9.7 0.05 7.75 0.05L7.75 0.05Q6 0.05 4.65 0.1 3.3 0.15 2.85 0.2L2.85 0.2 3.3-2.05Q4.9-2.25 5.7-2.6 6.5-2.95 6.8-3.73 7.1-4.5 7.1-6L7.1-6 7.15-27Q7.15-28.6 6.78-29.15 6.4-29.7 5.3-29.7L5.3-29.7Q4.8-29.7 4.3-29.65 3.8-29.6 3.6-29.6L3.6-29.6 3.5-29.8 3.85-32Q4.45-31.95 6.1-31.9 7.75-31.85 9.4-31.85L9.4-31.85Q11.1-31.85 12.98-31.93 14.85-32 15.55-32.05L15.55-32.05Q20.2-32.05 22.9-29.95 25.6-27.85 25.6-24.2L25.6-24.2Q25.6-21.2 23.68-18.7 21.75-16.2 18.25-14.6L18.25-14.6 23.75-5.9Q25.2-3.5 26.58-2.58 27.95-1.65 29.95-1.65L29.95-1.65 30.15-1.45 29.85 0.25 25.6 0.8ZM16.05-15.95Q16.05-15.8 17.55-16.6 19.05-17.4 20.25-19.05 21.45-20.7 21.45-23.3L21.45-23.3Q21.45-29.9 12.3-29.9L12.3-29.9Q11.8-29.9 11.63-29.68 11.45-29.45 11.4-28.75L11.4-28.75Q10.95-21.1 10.9-16.45L10.9-16.45 16.05-15.95ZM33.25 0.4L33.5-1.7Q35.35-1.9 36-2.6 36.65-3.3 36.65-5L36.65-5 36.7-20.85Q36.7-22.1 36.4-22.53 36.1-22.95 35.2-22.95L35.2-22.95 33.85-22.9 33.75-23.1 34.05-25Q34.65-25 36.4-24.95 38.15-24.9 40.2-24.9L40.2-24.9Q48.55-24.9 52.55-25.35L52.55-25.35 52.7-25.1Q52.6-24.55 52.25-22.6 51.9-20.65 51.75-18.4L51.75-18.4 49.35-18.2Q49.35-18.4 49.4-18.88 49.45-19.35 49.45-19.85L49.45-19.85Q49.45-21.15 49.07-21.68 48.7-22.2 47.52-22.38 46.35-22.55 43.45-22.55L43.45-22.55Q42.1-22.55 41.6-22.48 41.1-22.4 40.95-22.13 40.8-21.85 40.75-21.1L40.75-21.1 40.45-14 44.55-13.95Q45.45-13.95 47.2-14.13 48.95-14.3 49.5-14.35L49.5-14.35 49.7-14.1 49.1-11.5Q48.55-11.5 46.92-11.55 45.3-11.6 43.5-11.6L43.5-11.6Q42.1-11.6 40.35-11.35L40.35-11.35Q40.2-7.55 40.2-4.5L40.2-4.5Q40.2-3.35 40.37-2.9 40.55-2.45 41.17-2.3 41.8-2.15 43.25-2.15L43.25-2.15Q46.5-2.15 47.9-2.45 49.3-2.75 49.87-3.68 50.45-4.6 50.8-6.85L50.8-6.85 53-7.05 53.2-6.8Q53.05-6.25 52.67-4.23 52.3-2.2 52.1 0L52.1 0 51.8 0.25Q50.45 0.2 46.2 0.1 41.95 0 39.3 0L39.3 0Q37.25 0 35.5 0.18 33.75 0.35 33.25 0.4L33.25 0.4ZM65.5 0.45Q63.75 0.45 62.27 0.15 60.8-0.15 59.92-0.48 59.05-0.8 58.85-0.9L58.85-0.9 58.6-1.35Q58.65-1.6 58.77-2.48 58.9-3.35 59.02-4.93 59.15-6.5 59.15-8.1L59.15-8.1 61.4-8.3Q61.4-5.6 61.82-4.28 62.25-2.95 63.3-2.45 64.35-1.95 66.5-1.95L66.5-1.95Q68.9-1.95 70.37-3 71.85-4.05 71.85-5.8L71.85-5.8Q71.85-6.95 71.02-7.83 70.2-8.7 69.12-9.3 68.05-9.9 65.7-11.05L65.7-11.05Q62.5-12.6 60.77-14.1 59.05-15.6 59.05-17.95L59.05-17.95Q59.05-20.05 60.32-21.75 61.6-23.45 63.85-24.4 66.1-25.35 68.85-25.35L68.85-25.35Q70.5-25.35 71.95-25.15 73.4-24.95 74.25-24.73 75.1-24.5 75.3-24.4L75.3-24.4 75.5-24.05Q75.4-23.5 75.05-21.58 74.7-19.65 74.55-17.45L74.55-17.45 72.6-17.25 72.3-17.45Q72.3-17.6 72.35-18.07 72.4-18.55 72.4-19.25L72.4-19.25Q72.4-21.2 71.37-21.98 70.35-22.75 67.75-22.75L67.75-22.75Q65.65-22.75 64.27-21.78 62.9-20.8 62.9-19.3L62.9-19.3Q62.9-17.8 64.27-16.75 65.65-15.7 68.45-14.35L68.45-14.35Q70.9-13.2 72.37-12.35 73.85-11.5 74.9-10.2 75.95-8.9 75.95-7.2L75.95-7.2Q75.95-4.95 74.62-3.23 73.3-1.5 70.92-0.53 68.55 0.45 65.5 0.45L65.5 0.45ZM92.74 0.45Q88.29 0.45 85.97-1.75 83.64-3.95 83.64-8.1L83.64-8.1 83.64-20.85Q83.64-22.1 83.34-22.53 83.04-22.95 82.14-22.95L82.14-22.95 80.79-22.9 80.69-23.05 80.99-25Q81.54-25 82.99-24.95 84.44-24.9 85.94-24.9L85.94-24.9Q87.04-24.9 88.49-25.03 89.94-25.15 90.39-25.2L90.39-25.2 90.19-23.2Q88.74-23 88.24-22.55 87.74-22.1 87.64-21L87.64-21 87.34-9.55Q87.34-6 88.99-4.08 90.64-2.15 93.74-2.15L93.74-2.15Q96.89-2.15 98.52-3.73 100.14-5.3 100.14-8.3L100.14-8.3Q100.14-11.4 100.07-15.33 99.99-19.25 99.94-20.85L99.94-20.85Q99.84-22.2 99.59-22.58 99.34-22.95 98.49-22.95L98.49-22.95 96.79-22.9 96.74-23.05 97.04-25Q97.54-25 98.92-24.95 100.29-24.9 101.69-24.9L101.69-24.9Q102.84-24.9 104.17-25.03 105.49-25.15 105.89-25.2L105.89-25.2 105.74-23.2Q103.99-22.95 103.49-22.55 102.99-22.15 102.99-21.05L102.99-21.05 102.99-8.25Q102.99-4.1 100.32-1.83 97.64 0.45 92.74 0.45L92.74 0.45ZM127.49 0.95L117.89-26 117.64-26Q117.34-22.7 116.59-13.63 115.84-4.55 115.84-3.75L115.84-3.75Q115.84-2.2 117.39-2.2L117.39-2.2 119.44-2.25 119.54-2.05 119.09 0.2Q118.54 0.15 117.12 0.08 115.69 0 114.24 0L114.24 0Q112.99 0 111.67 0.18 110.34 0.35 109.94 0.4L109.94 0.4 110.19-1.9Q111.79-2.1 112.49-2.93 113.19-3.75 113.39-5.75L113.39-5.75Q113.89-10.45 114.72-18.43 115.54-26.4 115.54-27.35L115.54-27.35Q115.54-28.65 114.52-29.3 113.49-29.95 111.24-30.1L111.24-30.1 111.09-30.35 111.49-32.1Q112.14-32.05 114.04-31.95 115.94-31.85 116.94-31.85L116.94-31.85Q117.84-31.85 118.92-31.93 119.99-32 120.34-32.05L120.34-32.05Q122.34-25.6 124.22-20.08 126.09-14.55 127.29-11.3 128.49-8.05 128.79-7.25L128.79-7.25 129.04-7.25Q129.74-9.1 132.24-16.05 134.74-23 137.69-31.95L137.69-31.95Q137.69-32 139.04-31.9L139.04-31.9 140.99-31.85Q141.94-31.85 143.84-31.98 145.74-32.1 146.39-32.15L146.39-32.15 146.49-31.95 146.24-30.1Q144.09-29.85 143.19-29.23 142.29-28.6 142.29-27.35L142.29-27.35Q142.29-26.25 142.74-19.18 143.19-12.1 143.59-6.95L143.59-6.95Q143.84-4.9 144.09-3.93 144.34-2.95 144.79-2.58 145.24-2.2 146.04-2.2L146.04-2.2Q146.49-2.2 146.89-2.25 147.29-2.3 147.44-2.3L147.44-2.3 147.54-2.1 147.09 0.15Q146.59 0.1 145.22 0.05 143.84 0 142.34 0L142.34 0Q140.99 0 139.32 0.18 137.64 0.35 137.14 0.4L137.14 0.4 137.34-1.9Q138.89-2.1 139.59-2.7 140.29-3.3 140.29-4.4L140.29-4.4Q140.29-5.45 139.57-14.15 138.84-22.85 138.59-26L138.59-26 138.34-26 128.69 0.6 127.49 0.95ZM164.19 0.35L164.04 0.1 164.19-1.7Q166.29-1.85 167.01-2.15 167.74-2.45 167.74-3.15L167.74-3.15Q167.74-3.95 167.39-4.85L167.39-4.85 166.19-8.7Q165.19-8.75 162.04-8.75L162.04-8.75Q160.59-8.75 157.74-8.45L157.74-8.45 156.34-4.75Q155.99-3.6 155.99-3.35L155.99-3.35Q155.99-2.55 156.54-2.2 157.09-1.85 158.34-1.85L158.34-1.85 160.49-1.85 160.64-1.65 160.34 0.25Q159.84 0.2 158.06 0.1 156.29 0 154.59 0L154.59 0Q152.99 0 151.71 0.05 150.44 0.1 149.99 0.1L149.99 0.1 150.29-1.95Q151.39-2.1 152.04-2.73 152.69-3.35 153.34-4.85L153.34-4.85 161.19-24.7 164.74-25.35 165.09-25.3Q165.09-25.1 167.36-17.4 169.64-9.7 171.44-4.65L171.44-4.65Q171.94-3.2 172.71-2.63 173.49-2.05 175.19-1.9L175.19-1.9 175.29-1.7 175.04 0.1Q174.54 0.1 173.19 0.05 171.84 0 170.49 0L170.49 0Q168.44 0 166.59 0.15 164.74 0.3 164.19 0.35L164.19 0.35ZM158.54-10.8L161.94-10.8Q163.69-10.8 165.59-11L165.59-11 162.54-20.7 162.19-20.7 158.54-10.8ZM181.64-20.85Q181.64-22.1 181.34-22.53 181.04-22.95 180.14-22.95L180.14-22.95 178.79-22.9 178.64-23.1 178.94-25Q179.49-25 180.94-24.95 182.39-24.9 183.74-24.9L183.74-24.9Q184.84-24.9 186.39-25.05 187.94-25.2 188.44-25.25L188.44-25.25 188.29-23.2Q186.74-22.95 186.19-22.48 185.64-22 185.59-20.9L185.59-20.9 185.14-4.65Q185.09-3.05 185.46-2.5 185.84-1.95 186.89-1.95L186.89-1.95Q187.49-1.95 187.99-2 188.49-2.05 188.64-2.1L188.64-2.1 188.74-1.9 188.39 0.1Q187.84 0.1 186.29 0.05 184.74 0 183.14 0L183.14 0 178.19 0.05 178.59-1.95Q180.49-2.15 181.04-2.7 181.59-3.25 181.59-4.95L181.59-4.95 181.64-20.85ZM186.29-12.95L193.29-19.9Q194.49-21.05 194.49-21.85L194.49-21.85Q194.49-22.9 192.04-23.05L192.04-23.05 191.94-23.25 192.24-25.15Q192.74-25.1 194.34-25 195.94-24.9 196.89-24.9L196.89-24.9Q198.19-24.9 199.36-24.95 200.54-25 200.94-25.05L200.94-25.05 201.14-24.75 200.84-22.95Q199.74-22.65 198.76-21.93 197.79-21.2 195.94-19.3L195.94-19.3 189.94-13.35 196.44-5.05Q197.89-3.25 199.01-2.5 200.14-1.75 201.54-1.7L201.54-1.7 201.74-1.45 201.49 0.1Q200.99 0.15 199.76 0.33 198.54 0.5 197.74 0.55L197.74 0.55Q195.54 0.55 193.14-2.75L193.14-2.75 186.24-12.3 186.29-12.95ZM205.33 0.4L205.58-1.7Q207.43-1.9 208.08-2.6 208.73-3.3 208.73-5L208.73-5 208.78-20.85Q208.78-22.1 208.48-22.53 208.18-22.95 207.28-22.95L207.28-22.95 205.93-22.9 205.83-23.1 206.13-25Q206.73-25 208.48-24.95 210.23-24.9 212.28-24.9L212.28-24.9Q220.63-24.9 224.63-25.35L224.63-25.35 224.78-25.1Q224.68-24.55 224.33-22.6 223.98-20.65 223.83-18.4L223.83-18.4 221.43-18.2Q221.43-18.4 221.48-18.88 221.53-19.35 221.53-19.85L221.53-19.85Q221.53-21.15 221.16-21.68 220.78-22.2 219.61-22.38 218.43-22.55 215.53-22.55L215.53-22.55Q214.18-22.55 213.68-22.48 213.18-22.4 213.03-22.13 212.88-21.85 212.83-21.1L212.83-21.1 212.53-14 216.63-13.95Q217.53-13.95 219.28-14.13 221.03-14.3 221.58-14.35L221.58-14.35 221.78-14.1 221.18-11.5Q220.63-11.5 219.01-11.55 217.38-11.6 215.58-11.6L215.58-11.6Q214.18-11.6 212.43-11.35L212.43-11.35Q212.28-7.55 212.28-4.5L212.28-4.5Q212.28-3.35 212.46-2.9 212.63-2.45 213.26-2.3 213.88-2.15 215.33-2.15L215.33-2.15Q218.58-2.15 219.98-2.45 221.38-2.75 221.96-3.68 222.53-4.6 222.88-6.85L222.88-6.85 225.08-7.05 225.28-6.8Q225.13-6.25 224.76-4.23 224.38-2.2 224.18 0L224.18 0 223.88 0.25Q222.53 0.2 218.28 0.1 214.03 0 211.38 0L211.38 0Q209.33 0 207.58 0.18 205.83 0.35 205.33 0.4L205.33 0.4ZM249.58 0.6Q248.48 0.6 247.33-0.38 246.18-1.35 245.23-3.05L245.23-3.05 241.03-10.4 237.78-10.4 237.68-5.05Q237.68-3.6 237.88-2.98 238.08-2.35 238.66-2.15 239.23-1.95 240.63-1.9L240.63-1.9 240.73-1.75 240.33 0.15Q239.73 0.1 238.16 0.08 236.58 0.05 234.98 0.05L234.98 0.05Q233.43 0.05 232.28 0.1 231.13 0.15 230.73 0.2L230.73 0.2 231.08-1.85Q232.93-2.1 233.53-2.7 234.13-3.3 234.13-4.95L234.13-4.95 234.18-20.9Q234.18-22.1 233.88-22.53 233.58-22.95 232.73-22.95L232.73-22.95 231.33-22.9 231.18-23.1 231.48-25Q231.98-25 233.38-24.95 234.78-24.9 236.18-24.9L236.18-24.9Q237.63-24.9 239.28-24.98 240.93-25.05 241.53-25.05L241.53-25.05Q245.58-25.05 247.88-23.38 250.18-21.7 250.18-18.75L250.18-18.75Q250.18-16.45 248.63-14.5 247.08-12.55 244.28-11.3L244.28-11.3 248.53-4.9Q249.73-3.1 250.83-2.35 251.93-1.6 253.48-1.6L253.48-1.6 253.68-1.35 253.43 0.2 249.58 0.6ZM241.93-12.6Q242.88-13 243.61-13.38 244.33-13.75 245.23-14.95 246.13-16.15 246.13-18.05L246.13-18.05Q246.13-22.9 238.98-22.9L238.98-22.9Q238.58-22.9 238.43-22.73 238.28-22.55 238.28-22L238.28-22Q237.88-15.9 237.88-13L237.88-13 241.93-12.6Z" opacity="1" transform="matrix(1,0,0,1,0,0)" fill="#556970" class="wordmark-text-0" data-fill-palette-color="primary" id="text-0"></path></svg></g></svg></g></svg></g></svg></g><g transform="matrix(1,0,0,1,81.51206768710522,0)"><svg viewBox="0 0 28.975864625789562 35.01250308949572" height="35.01250308949572" width="28.975864625789562"><g><svg xmlns="http://www.w3.org/2000/svg" xmlns:xlink="http://www.w3.org/1999/xlink" version="1.1" x="0" y="0" viewBox="8 3 48 58" style="enable-background:new 0 0 64 64;" xml:space="preserve" height="35.01250308949572" width="28.975864625789562" class="icon-icon-0" data-fill-palette-color="accent" id="icon-0"><g fill="#aba944" data-fill-palette-color="accent"><path d="M56 40V36H54V28H53V26C53 24.346 51.654 23 50 23H36V20.796C35.343 20.919 34.677 21 34 21H24C23.323 21 22.657 20.919 22 20.796V25H50C50.551 25 51 25.448 51 26V28H50V36H48V40H50V57H12A4 4 0 0 0 8 61H55A1 1 0 0 0 56 60V58A1 1 0 0 0 55 57H54V40z" fill="#aba944" data-fill-palette-color="accent"></path><path d="M37 49V41H21V42C17.691 42 15 44.691 15 48S17.691 54 21 54H22.76A7.98 7.98 0 0 0 29 57 8 8 0 0 0 37 49M21 52C18.794 52 17 50.206 17 48S18.794 44 21 44V49A8 8 0 0 0 21.587 52z" fill="#aba944" data-fill-palette-color="accent"></path><rect x="15" y="3" width="28.001" height="2" fill="#aba944" data-fill-palette-color="accent"></rect><path d="M24 27V29.689L23.857 29.926A6 6 0 0 0 23 33C23 36.309 25.691 39 29 39S35 36.309 35 33A5.97 5.97 0 0 0 34.143 29.927L34 29.689V27H32V36H30V27H28V34H26V27z" fill="#aba944" data-fill-palette-color="accent"></path><path d="M41 7H17V9.069C18.276 9.239 19.066 9.714 19.771 10.148 20.543 10.624 21.153 11 22.494 11 23.836 11 24.446 10.624 25.22 10.148 26.094 9.61 27.085 9 28.993 9S31.894 9.61 32.769 10.148C33.542 10.624 34.153 11 35.497 11 36.84 11 37.451 10.624 38.225 10.148 38.931 9.714 39.722 9.238 41.001 9.068z" fill="#aba944" data-fill-palette-color="accent"></path><path d="M31.721 11.852C30.947 11.376 30.336 11 28.993 11 27.651 11 27.041 11.376 26.267 11.852 25.393 12.39 24.401 13 22.494 13S19.597 12.39 18.723 11.852C18.175 11.515 17.704 11.23 17.001 11.092V15.657A9.05 9.05 0 0 0 24.001 19.001H34.001A9.05 9.05 0 0 0 41.001 15.657V11.092C40.295 11.23 39.823 11.515 39.273 11.853 38.397 12.39 37.405 13 35.497 13S32.596 12.39 31.721 11.852" fill="#aba944" data-fill-palette-color="accent"></path></g></svg></g></svg></g><g></g></svg></g></svg></g></svg></g></svg></g><defs></defs></svg><rect width="320" height="360" fill="none" stroke="none" visibility="hidden"></rect></g></svg></g></svg>